<?xml version="1.0" standalone="no"?>
<!DOCTYPE svg PUBLIC "-//W3C//DTD SVG 20010904//EN"
 "http://www.w3.org/TR/2001/REC-SVG-20010904/DTD/svg10.dtd">
<svg version="1.0" xmlns="http://www.w3.org/2000/svg"
 width="64.000000pt" height="64.000000pt" viewBox="0 0 64.000000 64.000000"
 preserveAspectRatio="xMidYMid meet">

<g transform="translate(0.000000,64.000000) scale(0.100000,-0.100000)"
fill="#000000" stroke="none">
<path d="M212 547 c-91 -92 -103 -112 -80 -135 22 -22 43 -13 93 38 l50 51 5
-142 c4 -121 8 -144 22 -153 13 -8 23 -8 36 0 14 9 18 32 22 153 l5 142 50
-51 c27 -27 56 -50 65 -50 20 0 40 19 40 40 0 20 -180 200 -200 200 -9 0 -57
-42 -108 -93z"/>
<path d="M50 225 c-8 -10 -11 -39 -8 -85 3 -63 7 -73 36 -103 l32 -32 210 0
210 0 32 33 c32 31 33 36 33 108 0 62 -3 79 -18 88 -32 20 -52 -4 -55 -70 -2
-32 -8 -64 -14 -71 -14 -18 -358 -19 -376 -1 -7 7 -12 37 -12 68 0 31 -5 61
-12 68 -16 16 -43 15 -58 -3z"/>
</g>
</svg>
